<svg width="19" height="20" viewBox="0 0 19 20" fill="none" xmlns="http://www.w3.org/2000/svg">
<path d="M4.54167 1V3.25M14.4583 1V3.25M1 16.75V5.5C1 4.90326 1.22388 4.33097 1.6224 3.90901C2.02091 3.48705 2.56141 3.25 3.125 3.25H15.875C16.4386 3.25 16.9791 3.48705 17.3776 3.90901C17.7761 4.33097 18 4.90326 18 5.5V16.75M1 16.75C1 17.3467 1.22388 17.919 1.6224 18.341C2.02091 18.7629 2.56141 19 3.125 19H15.875C16.4386 19 16.9791 18.7629 17.3776 18.341C17.7761 17.919 18 17.3467 18 16.75M1 16.75V9.25C1 8.65326 1.22388 8.08097 1.6224 7.65901C2.02091 7.23705 2.56141 7 3.125 7H15.875C16.4386 7 16.9791 7.23705 17.3776 7.65901C17.7761 8.08097 18 8.65326 18 9.25V16.75M9.5 10.75H9.50756V10.758H9.5V10.75ZM9.5 13H9.50756V13.008H9.5V13ZM9.5 15.25H9.50756V15.258H9.5V15.25ZM7.375 13H7.38256V13.008H7.375V13ZM7.375 15.25H7.38256V15.258H7.375V15.25ZM5.25 13H5.25756V13.008H5.25V13ZM5.25 15.25H5.25756V15.258H5.25V15.25ZM11.625 10.75H11.6326V10.758H11.625V10.75ZM11.625 13H11.6326V13.008H11.625V13ZM11.625 15.25H11.6326V15.258H11.625V15.25ZM13.75 10.75H13.7576V10.758H13.75V10.75ZM13.75 13H13.7576V13.008H13.75V13Z" stroke="#1B1B1B" stroke-width="1.5" stroke-linecap="round" stroke-linejoin="round"/>
</svg>
