<svg width="24" height="18" viewBox="0 0 24 18" fill="none" xmlns="http://www.w3.org/2000/svg">
<path d="M17.0769 2.33333V3.16667M17.0769 6.5V7.33333M17.0769 10.6667V11.5M17.0769 14.8333V15.6667M6.92308 9.83333H12.8462M6.92308 12.3333H10.3077M2.26923 1.5C1.56862 1.5 1 2.06 1 2.75V6.11222C1.5153 6.40442 1.94332 6.82519 2.24093 7.33217C2.53855 7.83914 2.69525 8.4144 2.69525 9C2.69525 9.5856 2.53855 10.1609 2.24093 10.6678C1.94332 11.1748 1.5153 11.5956 1 11.8878V15.25C1 15.94 1.56862 16.5 2.26923 16.5H21.7308C22.4314 16.5 23 15.94 23 15.25V11.8878C22.4847 11.5956 22.0567 11.1748 21.7591 10.6678C21.4615 10.1609 21.3048 9.5856 21.3048 9C21.3048 8.4144 21.4615 7.83914 21.7591 7.33217C22.0567 6.82519 22.4847 6.40442 23 6.11222V2.75C23 2.06 22.4314 1.5 21.7308 1.5H2.26923Z" stroke="#B21E1E" stroke-width="1.5" stroke-linecap="round" stroke-linejoin="round"/>
</svg>
