<svg width="77" height="51" viewBox="0 0 77 51" fill="none" xmlns="http://www.w3.org/2000/svg">
<g clip-path="url(#clip0_444_1839)">
<path d="M77 0H0V51H77V0Z" fill="white"/>
<path d="M38.5 5.6665L37.6187 8.36116L38.9749 8.79894L38.5 5.6665Z" fill="#B21E1E"/>
<path d="M38.5 5.6665L39.3813 8.36116L38.0251 8.79894L38.5 5.6665Z" fill="#B21E1E"/>
<path d="M41.2101 7.62842L38.3604 7.62406L38.3626 9.03636L41.2101 7.62842Z" fill="#B21E1E"/>
<path d="M41.2123 7.62646L38.9071 9.28965L38.0669 8.14133L41.2123 7.62646Z" fill="#B21E1E"/>
<path d="M40.1763 10.793L39.2933 8.09708L37.9389 8.53363L40.1763 10.793Z" fill="#B21E1E"/>
<path d="M40.1775 10.7915L37.8691 9.12475L38.706 7.98001L40.1775 10.7915Z" fill="#B21E1E"/>
<path d="M35.7899 7.62842L38.6396 7.62406L38.6374 9.03636L35.7899 7.62842Z" fill="#B21E1E"/>
<path d="M35.7877 7.62646L38.0929 9.28965L38.9331 8.14133L35.7877 7.62646Z" fill="#B21E1E"/>
<path d="M36.8237 10.793L37.7067 8.09708L39.0611 8.53363L36.8237 10.793Z" fill="#B21E1E"/>
<path d="M36.8225 10.7915L39.1309 9.12475L38.294 7.98001L36.8225 10.7915Z" fill="#B21E1E"/>
<path d="M38.5 39.6665L37.6187 42.3612L38.9749 42.7989L38.5 39.6665Z" fill="#B21E1E"/>
<path d="M38.5 39.6665L39.3813 42.3612L38.0251 42.7989L38.5 39.6665Z" fill="#B21E1E"/>
<path d="M41.2101 41.6284L38.3604 41.6241L38.3626 43.0364L41.2101 41.6284Z" fill="#B21E1E"/>
<path d="M41.2123 41.6265L38.9071 43.2896L38.0669 42.1413L41.2123 41.6265Z" fill="#B21E1E"/>
<path d="M40.1763 44.793L39.2933 42.0971L37.9389 42.5336L40.1763 44.793Z" fill="#B21E1E"/>
<path d="M40.1775 44.7915L37.8691 43.1247L38.706 41.98L40.1775 44.7915Z" fill="#B21E1E"/>
<path d="M35.7899 41.6284L38.6396 41.6241L38.6374 43.0364L35.7899 41.6284Z" fill="#B21E1E"/>
<path d="M35.7877 41.6265L38.0929 43.2896L38.9331 42.1413L35.7877 41.6265Z" fill="#B21E1E"/>
<path d="M36.8237 44.793L37.7067 42.0971L39.0611 42.5336L36.8237 44.793Z" fill="#B21E1E"/>
<path d="M36.8225 44.7915L39.1309 43.1247L38.294 41.98L36.8225 44.7915Z" fill="#B21E1E"/>
<path d="M21.3889 22.6665L20.5076 25.3612L21.8638 25.7989L21.3889 22.6665Z" fill="#B21E1E"/>
<path d="M21.3889 22.6665L22.2702 25.3612L20.914 25.7989L21.3889 22.6665Z" fill="#B21E1E"/>
<path d="M24.0989 24.6284L21.2493 24.6241L21.2515 26.0364L24.0989 24.6284Z" fill="#B21E1E"/>
<path d="M24.1012 24.6265L21.796 26.2896L20.9558 25.1413L24.1012 24.6265Z" fill="#B21E1E"/>
<path d="M23.0652 27.793L22.1822 25.0971L20.8278 25.5336L23.0652 27.793Z" fill="#B21E1E"/>
<path d="M23.0664 27.7915L20.758 26.1247L21.5949 24.98L23.0664 27.7915Z" fill="#B21E1E"/>
<path d="M18.6788 24.6284L21.5285 24.6241L21.5263 26.0364L18.6788 24.6284Z" fill="#B21E1E"/>
<path d="M18.6766 24.6265L20.9818 26.2896L21.822 25.1413L18.6766 24.6265Z" fill="#B21E1E"/>
<path d="M19.7126 27.793L20.5956 25.0971L21.95 25.5336L19.7126 27.793Z" fill="#B21E1E"/>
<path d="M19.7114 27.7915L22.0198 26.1247L21.1829 24.98L19.7114 27.7915Z" fill="#B21E1E"/>
<path d="M28.2669 13.0698L30.5754 11.403L29.7385 10.2583L28.2669 13.0698Z" fill="#B21E1E"/>
<path d="M28.2682 13.0713L29.1513 10.3753L30.5056 10.8118L28.2682 13.0713Z" fill="#B21E1E"/>
<path d="M27.2322 9.90332L29.5383 11.5675L30.3775 10.4202L27.2322 9.90332Z" fill="#B21E1E"/>
<path d="M27.2334 9.9043L30.084 9.90192L30.0828 11.3162L27.2334 9.9043Z" fill="#B21E1E"/>
<path d="M29.9463 7.94434L29.0632 10.6403L30.4175 11.0768L29.9463 7.94434Z" fill="#B21E1E"/>
<path d="M29.9463 7.94434L30.8257 10.6377L29.4678 11.0768L29.9463 7.94434Z" fill="#B21E1E"/>
<path d="M31.6195 13.0693L29.3135 11.4052L30.1528 10.2578L31.6195 13.0693Z" fill="#B21E1E"/>
<path d="M31.6207 13.0684L30.7411 10.3749L29.3833 10.8138L31.6207 13.0684Z" fill="#B21E1E"/>
<path d="M32.6567 9.90088L30.3486 11.5672L29.5114 10.4221L32.6567 9.90088Z" fill="#B21E1E"/>
<path d="M32.6567 9.90186L29.8058 9.90377L29.8049 11.3185L32.6567 9.90186Z" fill="#B21E1E"/>
<path d="M25.3576 19.2935L24.4745 16.5975L23.1202 17.034L25.3576 19.2935Z" fill="#B21E1E"/>
<path d="M25.3589 19.292L23.0504 17.6252L23.8873 16.4805L25.3589 19.292Z" fill="#B21E1E"/>
<path d="M22.0062 19.292L24.3123 17.6279L23.473 16.4805L22.0062 19.292Z" fill="#B21E1E"/>
<path d="M22.0051 19.291L22.8847 16.5975L24.2425 17.0365L22.0051 19.291Z" fill="#B21E1E"/>
<path d="M20.9691 16.1235L23.2771 17.7899L24.1144 16.6448L20.9691 16.1235Z" fill="#B21E1E"/>
<path d="M20.9691 16.1245L23.82 16.1264L23.8209 17.5412L20.9691 16.1245Z" fill="#B21E1E"/>
<path d="M26.3936 16.1255L24.0875 17.7897L23.2483 16.6424L26.3936 16.1255Z" fill="#B21E1E"/>
<path d="M26.3924 16.1265L23.5418 16.1241L23.543 17.5384L26.3924 16.1265Z" fill="#B21E1E"/>
<path d="M23.6795 14.1665L24.5626 16.8625L23.2083 17.2989L23.6795 14.1665Z" fill="#B21E1E"/>
<path d="M23.6795 14.1665L22.8001 16.8599L24.158 17.2989L23.6795 14.1665Z" fill="#B21E1E"/>
<path d="M26.3905 33.1309L23.5418 33.1247L23.5449 34.5352L26.3905 33.1309Z" fill="#B21E1E"/>
<path d="M26.3936 33.1274L24.0893 34.7897L23.2483 33.6405L26.3936 33.1274Z" fill="#B21E1E"/>
<path d="M25.3576 36.2954L24.4717 33.5975L23.1202 34.0319L25.3576 36.2954Z" fill="#B21E1E"/>
<path d="M25.361 36.292L23.0504 34.6229L23.8852 33.4805L25.361 36.292Z" fill="#B21E1E"/>
<path d="M22.0071 36.292L24.3123 34.6289L23.4721 33.4805L22.0071 36.292Z" fill="#B21E1E"/>
<path d="M22.0051 36.29L22.8834 33.5974L24.2425 34.0372L22.0051 36.29Z" fill="#B21E1E"/>
<path d="M23.6774 31.1665L24.5626 33.8639L23.2105 34.2989L23.6774 31.1665Z" fill="#B21E1E"/>
<path d="M23.6773 31.1665L22.8001 33.8584L24.1602 34.2989L23.6773 31.1665Z" fill="#B21E1E"/>
<path d="M20.9691 33.1245L23.8197 33.1269L23.8209 34.5412L20.9691 33.1245Z" fill="#B21E1E"/>
<path d="M20.9691 33.123L23.2774 34.7896L24.1144 33.6447L20.9691 33.123Z" fill="#B21E1E"/>
<path d="M32.6536 39.353L29.8049 39.3469L29.808 40.7574L32.6536 39.353Z" fill="#B21E1E"/>
<path d="M32.6567 39.3496L30.3524 41.0119L29.5114 39.8627L32.6567 39.3496Z" fill="#B21E1E"/>
<path d="M31.6207 42.5176L30.7348 39.8196L29.3833 40.2541L31.6207 42.5176Z" fill="#B21E1E"/>
<path d="M31.6241 42.5142L29.3135 40.8451L30.1483 39.7027L31.6241 42.5142Z" fill="#B21E1E"/>
<path d="M28.2702 42.5142L30.5754 40.851L29.7352 39.7027L28.2702 42.5142Z" fill="#B21E1E"/>
<path d="M28.2682 42.5122L29.1465 39.8196L30.5056 40.2594L28.2682 42.5122Z" fill="#B21E1E"/>
<path d="M29.9405 37.3887L30.8257 40.0861L29.4736 40.5211L29.9405 37.3887Z" fill="#B21E1E"/>
<path d="M29.9404 37.3887L29.0632 40.0806L30.4233 40.5211L29.9404 37.3887Z" fill="#B21E1E"/>
<path d="M27.2322 39.3467L30.0828 39.3491L30.084 40.7633L27.2322 39.3467Z" fill="#B21E1E"/>
<path d="M27.2322 39.3452L29.5405 41.0118L30.3775 39.8669L27.2322 39.3452Z" fill="#B21E1E"/>
<path d="M55.6111 22.6665L56.4924 25.3612L55.1362 25.7989L55.6111 22.6665Z" fill="#B21E1E"/>
<path d="M55.6111 22.6665L54.7298 25.3612L56.086 25.7989L55.6111 22.6665Z" fill="#B21E1E"/>
<path d="M52.9011 24.6284L55.7507 24.6241L55.7485 26.0364L52.9011 24.6284Z" fill="#B21E1E"/>
<path d="M52.8988 24.6265L55.204 26.2896L56.0442 25.1413L52.8988 24.6265Z" fill="#B21E1E"/>
<path d="M53.9348 27.793L54.8178 25.0971L56.1722 25.5336L53.9348 27.793Z" fill="#B21E1E"/>
<path d="M53.9336 27.7915L56.242 26.1247L55.4051 24.98L53.9336 27.7915Z" fill="#B21E1E"/>
<path d="M58.3212 24.6284L55.4715 24.6241L55.4737 26.0364L58.3212 24.6284Z" fill="#B21E1E"/>
<path d="M58.3234 24.6265L56.0182 26.2896L55.178 25.1413L58.3234 24.6265Z" fill="#B21E1E"/>
<path d="M57.2874 27.793L56.4044 25.0971L55.05 25.5336L57.2874 27.793Z" fill="#B21E1E"/>
<path d="M57.2886 27.7915L54.9802 26.1247L55.8171 24.98L57.2886 27.7915Z" fill="#B21E1E"/>
<path d="M48.7331 13.0698L46.4246 11.403L47.2615 10.2583L48.7331 13.0698Z" fill="#B21E1E"/>
<path d="M48.7318 13.0713L47.8487 10.3753L46.4944 10.8118L48.7318 13.0713Z" fill="#B21E1E"/>
<path d="M49.7678 9.90332L47.4617 11.5675L46.6225 10.4202L49.7678 9.90332Z" fill="#B21E1E"/>
<path d="M49.7666 9.9043L46.916 9.90192L46.9172 11.3162L49.7666 9.9043Z" fill="#B21E1E"/>
<path d="M47.0537 7.94434L47.9368 10.6403L46.5825 11.0768L47.0537 7.94434Z" fill="#B21E1E"/>
<path d="M47.0537 7.94434L46.1743 10.6377L47.5322 11.0768L47.0537 7.94434Z" fill="#B21E1E"/>
<path d="M45.3805 13.0693L47.6865 11.4052L46.8472 10.2578L45.3805 13.0693Z" fill="#B21E1E"/>
<path d="M45.3793 13.0684L46.2589 10.3749L47.6167 10.8138L45.3793 13.0684Z" fill="#B21E1E"/>
<path d="M44.3433 9.90088L46.6514 11.5672L47.4886 10.4221L44.3433 9.90088Z" fill="#B21E1E"/>
<path d="M44.3433 9.90186L47.1942 9.90377L47.1951 11.3185L44.3433 9.90186Z" fill="#B21E1E"/>
<path d="M51.6424 19.2935L52.5255 16.5975L53.8798 17.034L51.6424 19.2935Z" fill="#B21E1E"/>
<path d="M51.6411 19.292L53.9496 17.6252L53.1127 16.4805L51.6411 19.292Z" fill="#B21E1E"/>
<path d="M54.9938 19.292L52.6877 17.6279L53.527 16.4805L54.9938 19.292Z" fill="#B21E1E"/>
<path d="M54.9949 19.291L54.1153 16.5975L52.7575 17.0365L54.9949 19.291Z" fill="#B21E1E"/>
<path d="M56.0309 16.1235L53.7228 17.7899L52.8856 16.6448L56.0309 16.1235Z" fill="#B21E1E"/>
<path d="M56.0309 16.1245L53.18 16.1264L53.1791 17.5412L56.0309 16.1245Z" fill="#B21E1E"/>
<path d="M50.6064 16.1255L52.9125 17.7897L53.7517 16.6424L50.6064 16.1255Z" fill="#B21E1E"/>
<path d="M50.6076 16.1265L53.4582 16.1241L53.457 17.5384L50.6076 16.1265Z" fill="#B21E1E"/>
<path d="M53.3205 14.1665L52.4374 16.8625L53.7917 17.2989L53.3205 14.1665Z" fill="#B21E1E"/>
<path d="M53.3205 14.1665L54.1999 16.8599L52.842 17.2989L53.3205 14.1665Z" fill="#B21E1E"/>
<path d="M50.6095 33.1309L53.4582 33.1247L53.4551 34.5352L50.6095 33.1309Z" fill="#B21E1E"/>
<path d="M50.6064 33.1274L52.9107 34.7897L53.7517 33.6405L50.6064 33.1274Z" fill="#B21E1E"/>
<path d="M51.6424 36.2954L52.5283 33.5975L53.8798 34.0319L51.6424 36.2954Z" fill="#B21E1E"/>
<path d="M51.639 36.292L53.9496 34.6229L53.1148 33.4805L51.639 36.292Z" fill="#B21E1E"/>
<path d="M54.9929 36.292L52.6877 34.6289L53.5279 33.4805L54.9929 36.292Z" fill="#B21E1E"/>
<path d="M54.9949 36.29L54.1166 33.5974L52.7575 34.0372L54.9949 36.29Z" fill="#B21E1E"/>
<path d="M53.3226 31.1665L52.4374 33.8639L53.7895 34.2989L53.3226 31.1665Z" fill="#B21E1E"/>
<path d="M53.3227 31.1665L54.1999 33.8584L52.8398 34.2989L53.3227 31.1665Z" fill="#B21E1E"/>
<path d="M56.0309 33.1245L53.1803 33.1269L53.1791 34.5412L56.0309 33.1245Z" fill="#B21E1E"/>
<path d="M56.0309 33.123L53.7226 34.7896L52.8856 33.6447L56.0309 33.123Z" fill="#B21E1E"/>
<path d="M44.3464 39.353L47.1951 39.3469L47.192 40.7574L44.3464 39.353Z" fill="#B21E1E"/>
<path d="M44.3433 39.3496L46.6476 41.0119L47.4886 39.8627L44.3433 39.3496Z" fill="#B21E1E"/>
<path d="M45.3793 42.5176L46.2652 39.8196L47.6167 40.2541L45.3793 42.5176Z" fill="#B21E1E"/>
<path d="M45.3759 42.5142L47.6865 40.8451L46.8517 39.7027L45.3759 42.5142Z" fill="#B21E1E"/>
<path d="M48.7298 42.5142L46.4246 40.851L47.2648 39.7027L48.7298 42.5142Z" fill="#B21E1E"/>
<path d="M48.7318 42.5122L47.8535 39.8196L46.4944 40.2594L48.7318 42.5122Z" fill="#B21E1E"/>
<path d="M47.0595 37.3887L46.1743 40.0861L47.5264 40.5211L47.0595 37.3887Z" fill="#B21E1E"/>
<path d="M47.0596 37.3887L47.9368 40.0806L46.5767 40.5211L47.0596 37.3887Z" fill="#B21E1E"/>
<path d="M49.7678 39.3467L46.9172 39.3491L46.916 40.7633L49.7678 39.3467Z" fill="#B21E1E"/>
<path d="M49.7678 39.3452L47.4595 41.0118L46.6225 39.8669L49.7678 39.3452Z" fill="#B21E1E"/>
</g>
<defs>
<clipPath id="clip0_444_1839">
<rect width="77" height="51" fill="white"/>
</clipPath>
</defs>
</svg>
