<svg width="31" height="31" viewBox="0 0 31 31" fill="none" xmlns="http://www.w3.org/2000/svg">
<path d="M0 0V31H31V0H0ZM25.8333 3.44444C26.784 3.44444 27.5556 4.216 27.5556 5.16667C27.5556 6.11733 26.784 6.88889 25.8333 6.88889C24.8827 6.88889 24.1111 6.11733 24.1111 5.16667C24.1111 4.216 24.8827 3.44444 25.8333 3.44444ZM15.5 6.88889C20.2551 6.88889 24.1111 10.7449 24.1111 15.5C24.1111 20.2551 20.2551 24.1111 15.5 24.1111C10.7449 24.1111 6.88889 20.2551 6.88889 15.5C6.88889 10.7449 10.7449 6.88889 15.5 6.88889ZM15.5 10.3333C14.1297 10.3333 12.8156 10.8777 11.8466 11.8466C10.8777 12.8156 10.3333 14.1297 10.3333 15.5C10.3333 16.8703 10.8777 18.1844 11.8466 19.1534C12.8156 20.1223 14.1297 20.6667 15.5 20.6667C16.8703 20.6667 18.1844 20.1223 19.1534 19.1534C20.1223 18.1844 20.6667 16.8703 20.6667 15.5C20.6667 14.1297 20.1223 12.8156 19.1534 11.8466C18.1844 10.8777 16.8703 10.3333 15.5 10.3333Z" fill="white"/>
</svg>
