<svg width="60" height="60" viewBox="0 0 60 60" fill="none" xmlns="http://www.w3.org/2000/svg">
<path d="M5.07411 42.7777C5.07411 44.1771 5.19729 45.5457 5.41797 46.8853C7.37678 35.2453 17.4959 26.3596 29.7072 26.3596C41.9032 26.3596 52.0326 35.2453 53.9845 46.8853C54.2121 45.5457 54.3267 44.1771 54.3267 42.7777C54.3267 29.1773 43.3043 18.1549 29.7072 18.1549C16.0982 18.1549 5.07411 29.1773 5.07411 42.7777Z" fill="white"/>
<path d="M33.4812 6.64261C32.2717 5.94633 31.0246 5.3681 29.7569 4.89251C38.8495 12.4215 41.4482 25.6234 35.3408 36.1805C29.2248 46.7341 16.4661 51.0366 5.4146 46.8983C6.45644 47.7588 7.5787 48.5526 8.7882 49.2472C20.5513 56.0714 35.6128 52.0631 42.4319 40.2982C49.2561 28.5351 45.2495 13.4651 33.4812 6.64261Z" fill="white"/>
<path d="M25.9264 6.64261C27.1359 5.94633 28.3779 5.3681 29.6507 4.89251C20.5547 12.4215 17.9543 25.6234 24.0703 36.1805C30.1896 46.7341 42.9484 51.0366 53.9965 46.8983C52.9512 47.7588 51.8272 48.5526 50.6126 49.2472C38.8597 56.0714 23.7829 52.0631 16.9741 40.2982C10.1516 28.5351 14.1582 13.4651 25.9264 6.64261Z" fill="white"/>
</svg>
