<svg width="65" height="59" viewBox="0 0 65 59" fill="none" xmlns="http://www.w3.org/2000/svg">
<g clip-path="url(#clip0_443_669)" filter="url(#filter0_d_443_669)">
<path d="M4 0H61V51H4V0Z" fill="white"/>
<path d="M18.3841 12.5274C18.4579 12.4542 18.5317 12.3811 18.5987 12.3013C18.7328 12.1484 18.8669 12.0087 19.0212 11.8758C19.0681 11.8359 19.1151 11.796 19.162 11.7694C19.1754 11.7561 19.1754 11.7295 19.1888 11.7162C19.1285 11.7428 19.0882 11.7893 19.0212 11.8159C19.0078 11.8159 18.9944 11.8026 19.0078 11.7893C19.0547 11.7561 19.1017 11.7228 19.1419 11.6896H19.1352C19.1218 11.6896 19.1218 11.6763 19.1218 11.663C18.9541 11.6364 18.8334 11.7494 18.7194 11.8492C18.6926 11.8625 18.6658 11.8359 18.6591 11.8359C18.4713 11.8957 18.3305 12.0619 18.1427 12.1351V12.1085C18.0689 12.1351 17.9952 12.1816 17.9147 12.1949C17.8007 12.2215 17.7001 12.2082 17.5995 12.2082C17.4453 12.2215 17.2911 12.2548 17.1368 12.288C17.1301 12.288 17.1301 12.288 17.1234 12.2947C17.0429 12.3146 16.9625 12.3478 16.8887 12.3877L16.8619 12.4143C16.8351 12.4409 16.8082 12.4742 16.7747 12.4875C16.6942 12.5274 16.6339 12.5939 16.5668 12.6537C16.5601 12.6604 16.5534 12.6604 16.5467 12.6604C16.4797 12.7269 16.4126 12.7934 16.3455 12.8532C16.3388 12.8598 16.3187 12.8598 16.3053 12.8598C16.3053 12.8532 16.312 12.8532 16.312 12.8465C16.3254 12.8266 16.3321 12.8133 16.3455 12.7934L16.3858 12.7335C16.4059 12.7069 16.4193 12.6803 16.4394 12.6604C16.4461 12.6537 16.4461 12.6471 16.4394 12.6471C16.4327 12.6404 16.426 12.6404 16.4193 12.6404C16.4797 12.5806 16.5601 12.5274 16.6339 12.4808C16.6272 12.4808 16.6138 12.4742 16.6205 12.4675C16.6272 12.4542 16.6339 12.4476 16.6406 12.4343C16.6406 12.4276 16.6406 12.4276 16.6473 12.421C16.6473 12.4143 16.6406 12.4143 16.6406 12.4077L16.5802 12.4476C16.5467 12.4742 16.5266 12.5274 16.4797 12.5274H16.4595C16.4528 12.5274 16.4461 12.5274 16.4461 12.5207V12.5141C16.4461 12.5074 16.4528 12.5074 16.4528 12.5008C16.4528 12.4941 16.4595 12.4941 16.4595 12.4875C16.4595 12.4875 16.4595 12.4808 16.4662 12.4808C16.4662 12.4742 16.4729 12.4675 16.4729 12.4675C16.4729 12.4609 16.4797 12.4609 16.4797 12.4542C16.4864 12.4476 16.4931 12.4343 16.4931 12.4276C16.4931 12.421 16.4998 12.421 16.4998 12.4143C16.5065 12.4077 16.5065 12.401 16.5132 12.3944C16.5199 12.3811 16.5132 12.3744 16.5065 12.3744C16.5266 12.3412 16.5601 12.3213 16.5937 12.3013H16.5869C16.6339 12.2747 16.6875 12.2481 16.7345 12.2215L16.7546 12.2016C16.6808 12.2282 16.6205 12.2614 16.5534 12.3013C16.5534 12.3013 16.54 12.308 16.5333 12.3146C16.5333 12.3146 16.5199 12.3213 16.4998 12.3013V12.2947C16.5132 12.2681 16.5534 12.2548 16.5735 12.2348C16.5869 12.2348 16.6004 12.2348 16.6004 12.2481C17.0094 11.9356 17.566 12.0087 18.0354 11.8492C18.0757 11.8226 18.1092 11.796 18.1494 11.776C18.2098 11.7494 18.2634 11.6896 18.3372 11.6497C18.4378 11.5765 18.5115 11.4834 18.5518 11.3638C18.5518 11.3505 18.5384 11.3372 18.5384 11.3372C18.3707 11.51 18.1829 11.6497 17.9818 11.7494C17.7135 11.889 17.4252 11.8625 17.1435 11.9023C17.1569 11.8758 17.1838 11.8758 17.2039 11.8758C17.2039 11.8359 17.2307 11.8226 17.2575 11.8026H17.2978C17.3112 11.8026 17.3112 11.776 17.3246 11.776C17.3514 11.776 17.3917 11.7627 17.3782 11.7627C17.338 11.7095 17.2642 11.8026 17.2039 11.7627C17.2307 11.7361 17.2173 11.7029 17.2441 11.6896H17.2978C17.2978 11.663 17.3246 11.6364 17.3246 11.6364C17.5124 11.5233 17.6934 11.4369 17.8678 11.3372C17.8275 11.3372 17.8074 11.3771 17.7672 11.3505C17.794 11.3505 17.7672 11.3106 17.794 11.3106C17.9348 11.2707 18.0488 11.1975 18.1897 11.1443C18.136 11.1443 18.1025 11.1842 18.0488 11.1443C18.0757 11.131 18.0891 11.1044 18.1226 11.1044V11.0645C18.1226 11.0512 18.136 11.0512 18.1494 11.0512C18.136 11.0512 18.1226 11.0379 18.1226 11.0379C18.136 11.0113 18.1762 11.0246 18.1964 10.998C18.1829 10.998 18.1561 10.998 18.1561 10.9847C18.1964 10.9316 18.2567 10.9249 18.3238 10.9116C18.3104 10.885 18.2701 10.9116 18.2701 10.885C18.2701 10.8717 18.2835 10.8717 18.2969 10.8717H18.2701C18.2433 10.8584 18.2567 10.8318 18.2567 10.8185C18.3305 10.7321 18.3305 10.619 18.3707 10.5193C18.3573 10.5193 18.3439 10.5193 18.3439 10.506C18.2165 10.6456 18.0153 10.6922 17.8275 10.7454H17.7404C17.68 10.772 17.5861 10.772 17.5258 10.7321C17.4721 10.7055 17.452 10.6722 17.3984 10.6323C17.2978 10.5725 17.1972 10.5193 17.0832 10.4794C16.768 10.3797 16.4394 10.3265 16.1108 10.3398C16.2517 10.2666 16.4059 10.26 16.5534 10.2134C16.768 10.1536 16.9692 10.0738 17.1972 10.0871C17.1569 10.0738 17.11 10.0871 17.0698 10.0871C16.8954 10.0738 16.7144 10.127 16.5266 10.1602C16.3992 10.1868 16.2852 10.2334 16.1578 10.26C16.084 10.2866 16.0438 10.3597 15.9566 10.3464V10.3065C16.084 10.1536 16.2382 10.0073 16.4394 9.994C16.6674 9.95411 16.882 9.994 17.11 10.0206C17.2777 10.0339 17.4252 10.0738 17.5928 10.107C17.6532 10.107 17.6666 10.2068 17.7202 10.2201C17.794 10.2467 17.8745 10.2201 17.9482 10.2733C17.9482 10.2467 17.9348 10.2201 17.9482 10.2001C18.0019 10.1469 18.0622 10.2134 18.1159 10.1868C18.2165 10.127 18.0287 10.014 17.9751 9.92086C17.9751 9.90756 17.9885 9.89426 17.9885 9.89426C18.0891 9.9807 18.1628 10.0804 18.2902 10.1469C18.3506 10.1735 18.5048 10.2068 18.478 10.1336C18.4177 9.994 18.2902 9.88097 18.1829 9.75463V9.70143C18.1561 9.70143 18.1561 9.68814 18.1427 9.67484V9.62164C18.0891 9.59505 18.1025 9.5485 18.0824 9.50861C18.0421 9.44876 18.0689 9.35567 18.0421 9.28253C18.0153 9.20939 18.0019 9.14289 17.9885 9.06975C17.9482 8.85698 17.9013 8.6708 17.8745 8.46467C17.8477 8.22529 18.0153 8.03911 18.1293 7.82634C18.2165 7.6734 18.3171 7.52712 18.4847 7.42738C18.5249 7.27445 18.6255 7.14811 18.7261 7.02842C18.8267 6.90874 18.9944 6.82894 19.1151 6.77575C19.2894 6.69596 19.4504 6.64941 19.4504 6.64941H10.7059V13.2987H16.9222C17.1637 13.1258 17.4051 13.046 17.7404 12.8798C17.9013 12.8133 18.2634 12.6471 18.3841 12.5274ZM16.4394 11.6231C16.4126 11.6231 16.3657 11.6364 16.3791 11.6098C16.3925 11.5499 16.4797 11.5499 16.5333 11.5233C16.5601 11.51 16.5937 11.4834 16.6205 11.4967C16.6473 11.5366 16.6808 11.5233 16.7077 11.5499C16.6272 11.6231 16.5266 11.5898 16.4394 11.6231ZM14.4947 11.3505C14.4947 11.3505 14.4813 11.3372 14.4813 11.3239C14.6489 11.1111 14.7697 10.9116 14.8904 10.6855C15.058 10.5991 15.1921 10.4728 15.3195 10.3331C15.5341 10.107 15.7621 9.90756 16.0304 9.78123C16.1309 9.74133 16.2584 9.75463 16.3589 9.79452C16.3187 9.84772 16.2584 9.83442 16.2047 9.86767C16.1913 9.86767 16.1779 9.86767 16.1645 9.85437C16.1779 9.84107 16.1779 9.82777 16.1779 9.81447C16.0505 9.95411 15.8761 10.014 15.7755 10.1802C15.7018 10.3065 15.6481 10.4661 15.4872 10.506C15.4335 10.5193 15.5006 10.4661 15.4738 10.4794C15.0781 10.7188 14.8032 11.0113 14.4947 11.3505ZM15.5475 10.5193C15.5341 10.5459 15.5207 10.5459 15.5073 10.5725C15.4939 10.5991 15.4805 10.6124 15.4537 10.6257C15.4402 10.6257 15.4268 10.6257 15.4268 10.6124C15.4402 10.5592 15.4805 10.5126 15.5274 10.4993C15.5475 10.4927 15.5475 10.506 15.5475 10.5193ZM16.1377 12.401C16.1309 12.4143 16.1175 12.4276 16.1041 12.4409C16.1175 12.4409 16.1309 12.4542 16.1175 12.4609C16.0907 12.4875 16.0572 12.5141 16.0237 12.5274H16.0035C15.9901 12.5407 15.97 12.554 15.9566 12.5739C15.9432 12.5872 15.8694 12.5806 15.8895 12.5606C15.9231 12.534 15.9499 12.5008 15.9834 12.4742C16.0035 12.4609 16.0237 12.4409 16.0371 12.421C16.0438 12.4077 16.0505 12.401 16.0639 12.3944C16.084 12.3811 16.1511 12.3744 16.1377 12.401ZM15.9097 12.3013C15.856 12.3346 15.8091 12.3678 15.7621 12.401C15.7085 12.4343 15.6481 12.4542 15.5945 12.4808C15.5878 12.4742 15.5811 12.4742 15.5744 12.4742C15.5274 12.5008 15.4872 12.534 15.4469 12.5739L15.4268 12.5939L15.4067 12.6138L15.3799 12.6404C15.3732 12.6471 15.3732 12.6537 15.3598 12.6604C15.3531 12.667 15.3329 12.667 15.3329 12.6537C15.3262 12.6604 15.3195 12.6604 15.3128 12.667C15.3061 12.6737 15.2994 12.6737 15.2927 12.6803H15.2793C15.2659 12.6936 15.2458 12.7069 15.2324 12.7202C15.2055 12.7468 15.1787 12.7668 15.1586 12.8V12.8066L15.1519 12.8133C15.1519 12.8133 15.1519 12.8199 15.1452 12.8199C15.1452 12.8266 15.1385 12.8266 15.1385 12.8332C15.1385 12.8332 15.1318 12.8399 15.1251 12.8399L15.1184 12.8332C15.1184 12.8332 15.1184 12.8266 15.1117 12.8266C15.1049 12.8199 15.1049 12.8133 15.0982 12.8066V12.8C15.1117 12.7867 15.1251 12.7734 15.1385 12.7535C15.1452 12.7468 15.1452 12.7402 15.1519 12.7402C15.1586 12.7335 15.1653 12.7202 15.172 12.7136C15.172 12.7069 15.1787 12.7069 15.1787 12.7003C15.1921 12.6803 15.2055 12.667 15.2189 12.6471L15.2257 12.6404C15.2324 12.6338 15.2391 12.6205 15.2458 12.6138C15.2525 12.6072 15.2525 12.6005 15.2592 12.5872V12.5806C15.2659 12.5673 15.2659 12.5606 15.2726 12.554V12.5473C15.2726 12.5407 15.2726 12.5407 15.2793 12.534C15.2793 12.5274 15.2793 12.5207 15.286 12.5141V12.5074C15.2994 12.4808 15.3195 12.4609 15.3397 12.4409H15.3329C15.3128 12.4542 15.2994 12.4675 15.286 12.4808C15.2726 12.4941 15.2458 12.4742 15.2659 12.4609C15.2793 12.4542 15.286 12.4409 15.2927 12.4343C15.3128 12.4143 15.3329 12.3877 15.3598 12.3678C15.3732 12.3545 15.3866 12.3478 15.4 12.3412L15.4067 12.3346C15.4134 12.3213 15.4268 12.3146 15.4335 12.3013C15.5542 12.1883 15.7621 12.1883 15.9164 12.1151C15.9767 12.0885 16.0572 12.1284 16.1175 12.1151C16.1578 12.1151 16.1913 12.1151 16.2315 12.1417C16.1175 12.1617 16.0169 12.2348 15.9097 12.3013ZM16.1712 11.4236C16.1578 11.4103 16.2114 11.4236 16.2248 11.397H16.1242C16.1108 11.397 16.1108 11.3837 16.1108 11.3704C16.0505 11.3837 15.97 11.4103 15.9097 11.4236C15.8225 11.4502 15.742 11.51 15.6414 11.5366C15.5006 11.5898 15.3866 11.7029 15.2391 11.7494C15.2257 11.7494 15.2257 11.7361 15.2257 11.7228C15.2391 11.6829 15.286 11.6696 15.3128 11.6364C15.3128 11.6231 15.3128 11.6098 15.2994 11.6098C15.4 11.4701 15.5408 11.397 15.6682 11.284V11.2441C15.7085 11.1909 15.7688 11.1709 15.7957 11.1044C15.8091 11.0645 15.8627 11.018 15.9231 10.9914C15.9097 10.9781 15.8828 10.9781 15.8828 10.9515C15.8292 10.9515 15.7822 10.9781 15.7286 10.9382C15.7554 10.9183 15.7822 10.905 15.8091 10.8917C15.7957 10.8917 15.7889 10.885 15.7822 10.8717C15.7688 10.8451 15.8091 10.8185 15.8426 10.8119C15.8962 10.7986 15.9566 10.7986 15.9968 10.7587C15.9097 10.7454 15.8091 10.7853 15.7152 10.7321C15.7755 10.5658 15.8828 10.4329 16.0304 10.3531C16.0438 10.3531 16.0706 10.3531 16.0706 10.3664C16.0706 10.4262 16.0304 10.4794 15.97 10.4927C16.0706 10.5193 16.1712 10.5193 16.2718 10.5658C16.2584 10.5924 16.2315 10.5791 16.2181 10.5791C16.2785 10.619 16.3589 10.5924 16.4193 10.639C16.3791 10.6789 16.3455 10.639 16.3053 10.639C16.7009 10.752 17.1167 10.8385 17.4453 11.0911C17.1637 11.2308 16.8753 11.2906 16.5735 11.3571C16.5333 11.3571 16.5132 11.3571 16.4729 11.3438C16.4729 11.3571 16.4729 11.3837 16.4595 11.3837C16.4059 11.3837 16.3724 11.3837 16.3321 11.4103C16.2852 11.4502 16.2114 11.4635 16.1712 11.4236Z" fill="#B21E1E"/>
<path d="M29.1806 6.64941H21.9785C21.9785 6.64941 21.9919 6.64941 22.0455 6.68266C22.1059 6.71591 22.1797 6.7558 22.2266 6.77575C22.3205 6.8223 22.4077 6.88214 22.468 6.97523C22.4948 7.01512 22.5284 7.08827 22.5082 7.14146C22.4814 7.2013 22.468 7.30769 22.4077 7.32764C22.3339 7.36754 22.2333 7.36754 22.1394 7.35424C22.0858 7.35424 22.0388 7.34094 21.9852 7.32764C22.173 7.40078 22.354 7.49387 22.4814 7.66675C22.4948 7.69335 22.5418 7.70665 22.5954 7.70665C22.6088 7.70665 22.6088 7.73325 22.6088 7.74655C22.582 7.77314 22.5552 7.78644 22.5686 7.81969H22.6088C22.6692 7.79309 22.6625 7.66675 22.7497 7.70665C22.81 7.74655 22.8368 7.83299 22.8033 7.89283C22.7497 7.94602 22.7027 7.97927 22.6491 8.01917C22.6357 8.04576 22.6357 8.07901 22.6491 8.10561C22.6893 8.1588 22.7027 8.20535 22.7094 8.25854C22.7497 8.34498 22.7631 8.44472 22.7966 8.53781C22.8502 8.72399 22.8972 8.91682 22.8838 9.103C22.8838 9.20274 22.8301 9.28918 22.8704 9.38892C22.8972 9.48866 22.9575 9.5618 23.0112 9.65489C23.0648 9.72803 23.1118 9.78123 23.152 9.85437C23.2258 9.9807 23.3666 10.107 23.3062 10.2533C23.266 10.3398 23.1319 10.3265 23.038 10.3797C22.9642 10.4395 23.0246 10.5459 23.0648 10.6057C23.1252 10.7188 22.9911 10.7919 22.8972 10.8252C22.924 10.8651 22.971 10.8518 22.9844 10.8784C22.9978 10.9382 23.0581 10.9781 23.0246 11.0446C22.971 11.1177 22.8234 11.1576 22.8972 11.2707C22.9508 11.3571 22.9173 11.4568 22.8838 11.5499C22.8435 11.6497 22.7564 11.7162 22.6558 11.7361C22.582 11.7627 22.4881 11.7627 22.4144 11.7494C22.3875 11.7361 22.3607 11.7228 22.3406 11.7228C22.126 11.6962 21.9114 11.6364 21.6968 11.6364C21.6365 11.6497 21.5694 11.663 21.5225 11.6829C21.4688 11.7228 21.4152 11.7694 21.3682 11.8159C21.3615 11.8292 21.3481 11.8359 21.3414 11.8492C21.3347 11.8558 21.328 11.8625 21.328 11.8691L21.3146 11.8824C21.2744 11.9289 21.2475 11.9755 21.214 12.0287C21.214 12.0353 21.2073 12.0353 21.2073 12.0353C21.2073 12.042 21.2006 12.0486 21.1939 12.0553C21.1537 12.1284 21.1201 12.2082 21.1 12.288C21.0128 12.5739 21.0531 12.8199 21.1134 12.8798C21.1268 12.8931 21.5292 13.0194 21.8108 13.1458C21.945 13.2056 22.0321 13.2455 22.1126 13.2987H29.1873V6.64941H29.1806Z" fill="#B21E1E"/>
<path d="M22.4077 9.0831C22.4613 9.0964 22.5351 9.0964 22.5351 9.123C22.5082 9.22274 22.3607 9.24933 22.2802 9.34907H22.24C22.1998 9.37567 22.2132 9.43551 22.1797 9.43551C22.1394 9.42221 22.1059 9.43551 22.0657 9.44881C22.1193 9.50201 22.1797 9.53525 22.2534 9.52195C22.2668 9.52195 22.2937 9.54855 22.2937 9.57515C22.2937 9.57515 22.3071 9.57515 22.3205 9.56185C22.3339 9.56185 22.3473 9.56185 22.3473 9.57515V9.62834C22.3071 9.68154 22.2467 9.65494 22.1931 9.66824C22.2937 9.69483 22.3942 9.69483 22.4881 9.66824C22.5619 9.64164 22.4881 9.5153 22.5418 9.45546C22.5149 9.45546 22.5418 9.41556 22.5149 9.41556C22.5418 9.38897 22.5686 9.35572 22.5887 9.34242C22.6155 9.34242 22.6491 9.32912 22.6625 9.30253C22.6625 9.27593 22.6088 9.26263 22.6222 9.24268C22.696 9.18949 22.7631 9.11635 22.7362 9.04321C22.7228 9.00331 22.6222 9.00331 22.5619 8.97671C22.5015 8.95012 22.4211 8.97671 22.3473 8.99001C22.2869 8.99001 22.2199 9.02991 22.1595 9.04321C22.0724 9.0698 21.9919 9.11635 21.9181 9.16954C22.0053 9.12965 22.0925 9.11635 22.1931 9.0964C22.2668 9.0831 22.3272 9.0698 22.4077 9.0831Z" fill="#B21E1E"/>
<path d="M10.7059 21.6101V16.6231H12.2348C12.7892 16.6231 13.2228 16.7561 13.5358 17.0221C13.8532 17.288 14.0141 17.6515 14.0186 18.1125C14.0186 18.4095 13.9493 18.6666 13.8107 18.8839C13.6721 19.1055 13.4754 19.2784 13.2206 19.4025L14.7898 21.6101H13.576L12.2415 19.5953H11.7252V21.6101H10.7059ZM11.7252 18.7376H12.2952C12.5098 18.7376 12.6752 18.6822 12.7914 18.5713C12.9121 18.4605 12.9725 18.3032 12.9725 18.0992C12.9725 17.9086 12.9121 17.7579 12.7914 17.6471C12.6707 17.5363 12.5053 17.4831 12.2952 17.4875H11.7252V18.7376ZM15.5006 21.6101V16.6231H18.4177V17.4875H16.5132V18.6378H18.1293V19.5022H16.5132V20.7457H18.4177V21.6101H15.5006ZM16.4864 16.1975L17.2911 15.2334H18.3372L17.4118 16.1975H16.4864ZM19.6582 21.6101V16.6231H21.3146C21.8645 16.6231 22.2959 16.7561 22.6088 17.0221C22.9262 17.288 23.0849 17.6515 23.0849 18.1125C23.0849 18.5736 22.9262 18.9348 22.6088 19.1964C22.2914 19.4623 21.86 19.5953 21.3146 19.5953H20.6775V21.6101H19.6582ZM20.6775 18.7376H21.3548C21.5739 18.7376 21.7438 18.6799 21.8645 18.5647C21.9852 18.4539 22.0455 18.2987 22.0455 18.0992C22.0455 17.9086 21.9829 17.7579 21.8578 17.6471C21.7371 17.5363 21.5694 17.4831 21.3548 17.4875H20.6775V18.7376ZM23.9031 19.6618V16.6231H24.9224V19.7416C24.9224 20.0741 25.0118 20.3356 25.1906 20.5262C25.3694 20.7124 25.6175 20.8055 25.9349 20.8055C26.2479 20.8055 26.4938 20.7124 26.6726 20.5262C26.8514 20.34 26.9408 20.0785 26.9408 19.7416V16.6231H27.9601V19.6618C27.9601 20.3179 27.7791 20.8299 27.4169 21.1978C27.0548 21.5657 26.5586 21.7497 25.9282 21.7497C25.3024 21.7497 24.8084 21.5657 24.4462 21.1978C24.0841 20.8254 23.9031 20.3135 23.9031 19.6618ZM29.2879 21.6101V16.6231H30.7095C31.2326 16.6231 31.6417 16.7428 31.9367 16.9822C32.2362 17.2215 32.386 17.554 32.386 17.9796C32.386 18.3918 32.2094 18.7198 31.8562 18.9636C32.12 19.0833 32.3234 19.2429 32.4665 19.4424C32.6095 19.6463 32.6811 19.879 32.6811 20.1406C32.6811 20.5972 32.5134 20.9562 32.1781 21.2178C31.8473 21.4793 31.3935 21.6101 30.8168 21.6101H29.2879ZM30.3005 20.7457H30.8772C31.1141 20.7457 31.2997 20.688 31.4338 20.5728C31.5679 20.4531 31.6349 20.2913 31.6349 20.0874C31.6349 19.8835 31.5679 19.7239 31.4338 19.6086C31.2997 19.4978 31.1141 19.4424 30.8772 19.4424H30.3005V20.7457ZM30.3005 18.578H30.7297C30.9219 18.578 31.0717 18.5292 31.1789 18.4317C31.2862 18.3386 31.3399 18.2034 31.3399 18.0261C31.3399 17.8576 31.2862 17.7269 31.1789 17.6338C31.0761 17.5363 30.9264 17.4875 30.7297 17.4875H30.3005V18.578ZM33.7875 21.6101V16.6231H34.8001V20.6925H36.7046V21.6101H33.7875ZM37.6702 21.6101V16.6231H38.6828V21.6101H37.6702ZM39.9234 20.1339C39.7938 19.8103 39.7289 19.4712 39.7289 19.1166C39.7289 18.762 39.7938 18.4251 39.9234 18.1059C40.0531 17.7823 40.2319 17.5008 40.4599 17.2614C40.6924 17.0221 40.974 16.8314 41.3048 16.6896C41.6401 16.5477 42 16.4768 42.3845 16.4768C42.7689 16.4768 43.1288 16.5477 43.4641 16.6896C43.7994 16.8314 44.0811 17.0221 44.3091 17.2614C44.5371 17.5008 44.7159 17.7823 44.8455 18.1059C44.9752 18.4251 45.04 18.762 45.04 19.1166C45.04 19.5333 44.9528 19.9234 44.7785 20.2869C44.6041 20.6503 44.3627 20.954 44.0542 21.1978L44.356 21.4837C44.7092 21.8029 45.0579 21.9603 45.4021 21.9558C45.5452 21.9558 45.6659 21.9381 45.7642 21.9026V22.7604C45.6078 22.8224 45.4312 22.8513 45.2345 22.8468C44.6935 22.8468 44.1727 22.6296 43.672 22.1952L43.0752 21.6633C42.8561 21.7209 42.6259 21.7497 42.3845 21.7497C42 21.7497 41.6401 21.6788 41.3048 21.5369C40.974 21.3951 40.6924 21.2067 40.4599 20.9717C40.2319 20.7324 40.0531 20.4531 39.9234 20.1339ZM41.2311 17.9131C40.9271 18.2367 40.7728 18.6378 40.7684 19.1166C40.7684 19.5953 40.9226 19.9965 41.2311 20.3201C41.5351 20.6437 41.9218 20.8055 42.3912 20.8055C42.6997 20.8055 42.9746 20.7324 43.216 20.5861C43.4619 20.4398 43.6541 20.2359 43.7927 19.9743C43.9313 19.7172 44.0006 19.4313 44.0006 19.1166C44.0006 18.6378 43.8464 18.2367 43.5379 17.9131C43.2339 17.5895 42.8494 17.4277 42.3845 17.4277C41.9151 17.4277 41.5284 17.5895 41.2244 17.9131H41.2311ZM45.9922 19.6618V16.6231H47.0115V19.7416C47.0115 20.0741 47.1009 20.3356 47.2798 20.5262C47.4586 20.7124 47.7067 20.8055 48.0241 20.8055C48.3371 20.8055 48.583 20.7124 48.7618 20.5262C48.9406 20.34 49.03 20.0785 49.03 19.7416V16.6231H50.0493V19.6618C50.0493 20.3179 49.8682 20.8299 49.5061 21.1978C49.144 21.5702 48.6478 21.7541 48.0174 21.7497C47.3915 21.7497 46.8975 21.5657 46.5354 21.1978C46.1733 20.8254 45.9922 20.3135 45.9922 19.6618ZM51.3771 21.6101V16.6231H54.2941V17.4875H52.3897V18.6378H54.0058V19.5022H52.3897V20.7457H54.2941V21.6101H51.3771ZM10.7059 28.8245V23.8376H13.6229V24.702H11.7252V25.8523H13.3413V26.7167H11.7252V28.8245H10.7059ZM14.5886 28.8245V23.8376H16.1175C16.6674 23.8376 17.1033 23.9706 17.4252 24.2365C17.7426 24.5025 17.9013 24.866 17.9013 25.327C17.9013 25.624 17.832 25.8833 17.6934 26.105C17.5548 26.3266 17.3581 26.4973 17.1033 26.617L18.6725 28.8245H17.4587L16.1242 26.8098H15.6079V28.8245H14.5886ZM15.6079 25.952H16.1779C16.3925 25.952 16.5601 25.8966 16.6808 25.7858C16.8015 25.675 16.8597 25.5176 16.8552 25.3137C16.8552 25.1231 16.7971 24.9724 16.6808 24.8616C16.5646 24.7507 16.3969 24.6975 16.1779 24.702H15.6079V25.952ZM18.9608 28.8245L20.8586 23.8376H22.1864L24.0841 28.8245H23.0045L22.5217 27.5279H20.5166L20.0405 28.8245H18.9608ZM20.8318 26.6635H22.2132L21.5225 24.7951L20.8318 26.6635ZM24.9291 28.8245V23.8376H26.23L28.4698 27.4082V23.8376H29.4824V28.8245H28.1814L25.9417 25.2406V28.8245H24.9291ZM30.5352 26.3311C30.5352 25.9764 30.6 25.6395 30.7297 25.3204C30.8593 24.9968 31.0381 24.7153 31.2661 24.4759C31.4986 24.2365 31.7802 24.0481 32.1111 23.9107C32.4464 23.7689 32.8085 23.6979 33.1974 23.6979C33.64 23.6979 34.0424 23.7866 34.4045 23.9639C34.7711 24.1457 35.0706 24.3939 35.3031 24.7086L34.5051 25.327C34.3575 25.1187 34.172 24.9524 33.9485 24.8283C33.7249 24.7042 33.4746 24.6421 33.1974 24.6421C32.728 24.6421 32.3413 24.8039 32.0373 25.1275C31.7333 25.4511 31.5791 25.8523 31.5746 26.3311C31.5746 26.8098 31.7288 27.2132 32.0373 27.5412C32.3413 27.8648 32.728 28.0244 33.1974 28.02C33.4746 28.02 33.7249 27.9601 33.9485 27.8404C34.172 27.7163 34.3575 27.5479 34.5051 27.3351L35.3031 27.9468C35.1064 28.2172 34.8605 28.4389 34.5654 28.6118C34.2704 28.7846 33.944 28.8932 33.5864 28.9376L32.9627 29.9749H32.0641L32.6945 28.9243C32.2698 28.8489 31.892 28.6871 31.5612 28.4389C31.2304 28.1906 30.9755 27.8826 30.7967 27.5146C30.6179 27.1467 30.5307 26.7522 30.5352 26.3311ZM35.5981 28.8245L37.4959 23.8376H38.8237L40.7214 28.8245H39.6418L39.1657 27.5279H37.1606L36.6778 28.8245H35.5981ZM37.4758 26.6635H38.8505L38.1598 24.7951L37.4758 26.6635ZM41.5664 28.8245V23.8376H42.5857V28.8245H41.5664ZM43.6049 28.133L44.3426 27.4614C44.4946 27.6565 44.6645 27.8072 44.8522 27.9136C45.0445 28.02 45.2434 28.0732 45.4491 28.0732C45.6502 28.0732 45.8067 28.0222 45.9185 27.9202C46.0347 27.8183 46.0928 27.6764 46.0928 27.4947C46.0928 27.3883 46.0615 27.2908 45.9989 27.2021C45.9319 27.1134 45.8447 27.0403 45.7374 26.9827C45.6301 26.9206 45.5072 26.8586 45.3686 26.7965C45.23 26.73 45.0892 26.6657 44.9461 26.6037C44.8031 26.5416 44.6645 26.4663 44.5304 26.3776C44.3918 26.2889 44.2688 26.1914 44.1615 26.085C44.0542 25.9786 43.9671 25.8434 43.9 25.6794C43.8329 25.5154 43.7994 25.3359 43.7994 25.1408C43.7994 24.7374 43.9514 24.3961 44.2554 24.1168C44.5594 23.8376 44.9439 23.6979 45.4088 23.6979C46.1062 23.6979 46.6897 23.9772 47.1591 24.5357L46.4147 25.2007C46.0928 24.784 45.7598 24.5756 45.4155 24.5756C45.2457 24.5756 45.1048 24.6266 44.9931 24.7286C44.8813 24.8305 44.8277 24.9546 44.8321 25.1009C44.8321 25.194 44.8589 25.2805 44.9126 25.3603C44.9662 25.4356 45.0355 25.5043 45.1205 25.5664C45.2099 25.624 45.3127 25.6816 45.4289 25.7393L45.7844 25.9055C45.914 25.9631 46.0414 26.0208 46.1666 26.0784C46.2962 26.1404 46.417 26.2158 46.5287 26.3045C46.6449 26.3887 46.7478 26.4862 46.8372 26.597C46.9266 26.7034 46.9959 26.8297 47.0451 26.976C47.0987 27.1267 47.1255 27.293 47.1255 27.4747C47.1166 27.9269 46.9534 28.2882 46.636 28.5586C46.3231 28.829 45.9319 28.9642 45.4625 28.9642C45.0512 28.9642 44.6958 28.8955 44.3962 28.758C44.0967 28.6162 43.8329 28.4078 43.6049 28.133ZM48.2588 28.8245V23.8376H51.1759V24.702H49.2781V25.8523H50.8942V26.7167H49.2781V27.9601H51.1759V28.8245H48.2588Z" fill="#B21E1E"/>
<path d="M27.3633 42.4957C27.5108 42.4957 27.6382 42.6087 27.5712 42.8681L26.8939 43.0476C27.0012 42.7284 27.2024 42.4957 27.3633 42.4957ZM27.7388 43.5862H27.6047C27.4371 43.7857 27.2493 43.9452 27.0682 43.9452C26.8805 43.9452 26.7866 43.8322 26.7866 43.5862C26.7866 43.4864 26.8 43.3801 26.8201 43.287L27.9199 42.9279C28.1345 42.4226 27.8729 42.2031 27.5712 42.2031C27.0481 42.2031 26.458 43.1074 26.458 43.8189C26.458 44.158 26.6189 44.3442 26.8738 44.3442C27.1755 44.3442 27.484 44.0583 27.7388 43.5862ZM27.5645 41.9638L28.1881 41.3986V41.3188H27.7724L27.4035 41.9704H27.5645V41.9638ZM25.2241 42.509H25.5862L25.0095 44.0782C24.9559 44.2112 25.0297 44.3442 25.1705 44.3442C25.5795 44.3442 26.0691 43.9984 26.2568 43.5064H26.1562C26.0087 43.7125 25.6868 43.9386 25.4454 43.9851L25.9752 42.509H26.5184L26.5854 42.2829H26.0557L26.2568 41.7177H26.0489L25.6734 42.2829L25.2241 42.3428V42.509ZM24.8486 42.4292C24.8955 42.2829 24.7949 42.2031 24.7212 42.2031C24.406 42.2031 24.0238 42.489 23.8762 42.8814H23.9768C24.0774 42.7351 24.2518 42.5755 24.4194 42.5489L23.8092 44.1181C23.7555 44.2644 23.8628 44.3442 23.9433 44.3442C24.2451 44.3442 24.6005 44.0583 24.748 43.666H24.6474C24.5468 43.8123 24.3725 43.9718 24.2048 43.9984L24.8486 42.4292ZM24.9089 41.8042C25.0431 41.8042 25.1571 41.6911 25.1571 41.5581C25.1571 41.4252 25.0431 41.3121 24.9089 41.3121C24.8419 41.3121 24.7815 41.3387 24.7346 41.3853C24.6877 41.4318 24.6608 41.4917 24.6608 41.5581C24.6608 41.6978 24.7681 41.8042 24.9089 41.8042ZM21.9651 42.642C22.0589 42.642 22.1126 42.7883 21.9651 43.1141L21.5359 44.0583C21.4554 44.2378 21.5426 44.3508 21.7169 44.3508C21.8242 44.3508 21.8712 44.3243 21.9181 44.2112L22.3406 43.1074C22.5351 42.8681 22.8972 42.6154 23.0581 42.6154C23.1721 42.6154 23.1587 42.7085 23.0849 42.8548L22.4345 44.0849C22.3741 44.2046 22.4546 44.3508 22.5954 44.3508C22.9106 44.3508 23.2928 44.0649 23.4404 43.6726H23.3264C23.2258 43.8189 23.0514 43.9785 22.8838 44.0051L23.4404 42.888C23.5141 42.7484 23.5477 42.6154 23.5477 42.509C23.5477 42.3295 23.4471 42.2098 23.2526 42.2098C22.9777 42.2098 22.7429 42.5156 22.4077 42.8947V42.6021C22.4077 42.396 22.3406 42.2098 22.1528 42.2098C21.9315 42.2098 21.7304 42.5555 21.5694 42.888H21.67C21.784 42.7284 21.8846 42.642 21.9651 42.642ZM21.5292 42.6819C21.6029 42.4226 21.5627 42.2031 21.3682 42.2031C21.1201 42.2031 21.0397 42.3694 20.7982 42.888V42.5954C20.7982 42.3893 20.7312 42.2031 20.5434 42.2031C20.3221 42.2031 20.1209 42.5489 19.96 42.8814H20.0606C20.1679 42.7284 20.2685 42.6353 20.3489 42.6353C20.4428 42.6353 20.4965 42.7816 20.3489 43.1074L19.9198 44.0516C19.8393 44.2312 19.9265 44.3442 20.1008 44.3442C20.2081 44.3442 20.2551 44.3176 20.302 44.2046L20.7111 43.1008C20.8318 42.9545 20.9391 42.8282 21.0732 42.6885H21.5292V42.6819ZM19.1888 42.4957C19.3364 42.4957 19.4638 42.6087 19.3967 42.8681L18.7194 43.0476C18.8334 42.7284 19.0279 42.4957 19.1888 42.4957ZM19.5644 43.5862H19.4302C19.2626 43.7857 19.0748 43.9452 18.8938 43.9452C18.706 43.9452 18.6121 43.8322 18.6121 43.5862C18.6121 43.4864 18.6255 43.3801 18.6457 43.287L19.7454 42.9279C19.96 42.4226 19.7052 42.2031 19.3967 42.2031C18.8737 42.2031 18.2835 43.1074 18.2835 43.8189C18.2835 44.158 18.4445 44.3442 18.6993 44.3442C19.0011 44.3442 19.3095 44.0583 19.5644 43.5862ZM17.0497 42.509H17.4118L16.8351 44.0782C16.7814 44.2112 16.8552 44.3442 16.996 44.3442C17.4051 44.3442 17.9013 43.9984 18.0824 43.5064H17.9818C17.8342 43.7125 17.5124 43.9386 17.2709 43.9851L17.8007 42.509H18.3439L18.4109 42.2829H17.8812L18.0824 41.7177H17.8745L17.4989 42.2829L17.0497 42.3428V42.509ZM15.1251 43.7325C15.1251 43.2471 15.6682 42.5888 15.9767 42.5888C16.0438 42.5888 16.1108 42.5954 16.1645 42.6154L15.8493 43.4532C15.6682 43.6726 15.3866 43.9386 15.2525 43.9386C15.172 43.9386 15.1251 43.8787 15.1251 43.7325ZM16.7948 42.11L16.6272 42.0967L16.4394 42.2829H16.4059C15.6079 42.2829 14.7495 43.267 14.7495 44.045C14.7495 44.2245 14.8501 44.3442 15.0446 44.3442C15.2793 44.3442 15.5073 44.0117 15.7688 43.6593L15.7554 43.7857C15.7219 44.1447 15.8359 44.3442 16.0237 44.3442C16.2449 44.3442 16.4461 43.9984 16.6004 43.666H16.4998C16.3925 43.8189 16.2919 43.912 16.2114 43.912C16.1309 43.912 16.0706 43.7591 16.2114 43.4399L16.7948 42.11ZM15.0848 42.6819C15.1586 42.4226 15.1184 42.2031 14.9239 42.2031C14.6758 42.2031 14.5953 42.3694 14.3539 42.888V42.5954C14.3539 42.3893 14.2868 42.2031 14.0924 42.2031C13.8711 42.2031 13.6699 42.5489 13.5157 42.8814H13.6162C13.7235 42.7284 13.8241 42.6353 13.9046 42.6353C13.9985 42.6353 14.0521 42.7816 13.9046 43.1074L13.4687 44.0583C13.3882 44.2378 13.4754 44.3508 13.6498 44.3508C13.7571 44.3508 13.804 44.3243 13.8509 44.2112L14.2734 43.1008C14.3941 42.9545 14.5014 42.8282 14.6355 42.6885H15.0848V42.6819ZM12.2751 44.2711L12.3153 44.1514C11.7855 44.0516 11.7185 44.0516 11.9331 43.4798L12.1342 42.9412H12.5567C12.8182 42.9412 12.8249 43.0542 12.7847 43.3402H12.9389L13.2877 42.3893H13.1334C12.9993 42.6154 12.8987 42.7883 12.6104 42.7883H12.1879L12.4762 42.0103C12.5768 41.731 12.6238 41.6778 12.9859 41.6778H13.0798C13.4486 41.6778 13.4955 41.7776 13.4955 42.1632H13.6431L13.7638 41.5183H11.7185L11.6782 41.6379C12.1007 41.7244 12.1409 41.7643 11.9465 42.3095L11.5106 43.4864C11.3094 44.025 11.2289 44.0716 10.7394 44.158L10.7059 44.2777H12.2751V44.2711ZM22.4211 37.9143C22.5686 37.9143 22.696 38.0274 22.6289 38.2867L21.9517 38.4662C22.0589 38.1471 22.2601 37.9143 22.4211 37.9143ZM22.7966 39.0048H22.6625C22.4948 39.2043 22.3071 39.3639 22.126 39.3639C21.9382 39.3639 21.8444 39.2508 21.8444 39.0048C21.8444 38.9051 21.8578 38.7987 21.8779 38.7056L22.9777 38.3465C23.1922 37.8412 22.9307 37.6218 22.6289 37.6218C22.1059 37.6218 21.5158 38.5261 21.5158 39.2375C21.5158 39.5767 21.6767 39.7628 21.9315 39.7628C22.2333 39.7695 22.5418 39.4769 22.7966 39.0048ZM22.6222 37.3824L23.2459 36.8172V36.7374H22.8301L22.4613 37.389H22.6222V37.3824ZM20.2819 37.9276H20.644L20.0673 39.4969C20.0137 39.6299 20.0874 39.7628 20.2282 39.7628C20.6373 39.7628 21.1268 39.4171 21.3146 38.925H21.214C21.0665 39.1312 20.7446 39.3572 20.5032 39.4038L21.0329 37.9276H21.5761L21.6432 37.7016H21.1134L21.3146 37.1364H21.1067L20.7312 37.7016L20.2819 37.7681V37.9276ZM19.9064 37.8545C19.9533 37.7082 19.8527 37.6284 19.7722 37.6284C19.4571 37.6284 19.0748 37.9143 18.9273 38.3066H19.0279C19.1285 38.1604 19.3028 38.0008 19.4705 37.9742L18.8602 39.5434C18.8066 39.6897 18.9139 39.7695 18.9944 39.7695C19.2961 39.7695 19.6515 39.4836 19.7991 39.0913H19.6985C19.5979 39.2375 19.4235 39.3971 19.2559 39.4237L19.9064 37.8545ZM19.9667 37.2295C20.1008 37.2295 20.2148 37.1164 20.2148 36.9834C20.2148 36.8505 20.1008 36.7374 19.9667 36.7374C19.8795 36.7374 19.7991 36.784 19.7521 36.8571C19.7052 36.9302 19.7052 37.03 19.7521 37.1098C19.7991 37.1829 19.8795 37.2361 19.9667 37.2295ZM18.022 39.4237L19.0279 36.7773L18.9944 36.7308L18.2969 36.8106V36.8904L18.4311 36.9901C18.5518 37.0832 18.5115 37.1696 18.4042 37.4688L17.6398 39.4902C17.5727 39.6099 17.6599 39.7562 17.8007 39.7562C18.1159 39.7562 18.4579 39.4703 18.6054 39.078H18.5048C18.3975 39.2309 18.1829 39.3905 18.022 39.4237ZM15.97 39.1511C15.97 38.6657 16.5132 38.0074 16.8217 38.0074C16.8887 38.0074 16.9491 38.0141 17.0094 38.034L16.6875 38.8718C16.5065 39.0913 16.2248 39.3572 16.0907 39.3572C16.0169 39.3639 15.97 39.2974 15.97 39.1511ZM17.6398 37.5353L17.4721 37.522L17.2844 37.7082H17.2508C16.4528 37.7082 15.5945 38.6923 15.5945 39.4703C15.5945 39.6498 15.6951 39.7695 15.8895 39.7695C16.1242 39.7695 16.3522 39.437 16.6138 39.0846L16.6004 39.211C16.5668 39.57 16.6808 39.7695 16.8686 39.7695C17.0899 39.7695 17.2911 39.4237 17.4453 39.0913H17.3447C17.2374 39.2442 17.1368 39.3373 17.0564 39.3373C16.9759 39.3373 16.9155 39.1844 17.0564 38.8718L17.6398 37.5353ZM13.7571 40.1485C13.7571 39.9424 13.9582 39.8094 14.2466 39.6964C14.3405 39.7429 14.488 39.7961 14.6758 39.8559C14.9775 39.9557 15.0915 39.9956 15.0915 40.082C15.0915 40.2748 14.8166 40.4211 14.3137 40.4211C13.9381 40.4278 13.7571 40.348 13.7571 40.1485ZM14.5819 38.8785C14.4478 38.8785 14.4008 38.7655 14.4008 38.6391C14.4008 38.2468 14.5886 37.7747 14.8904 37.7747C15.0245 37.7747 15.0714 37.8877 15.0714 38.0141C15.0714 38.3997 14.8769 38.8785 14.5819 38.8785ZM15.4402 39.9557C15.4402 39.703 15.2122 39.6099 14.8434 39.5035C14.5282 39.4104 14.3807 39.3838 14.3807 39.2774C14.3807 39.1977 14.4478 39.0979 14.5819 39.0248C15.1049 38.9982 15.4335 38.5327 15.4335 38.1205C15.4335 38.0473 15.4201 37.9808 15.4 37.921H15.7554L15.8225 37.6949H15.2189C15.1385 37.6417 15.0379 37.6151 14.9239 37.6151C14.374 37.6151 14.0186 38.0939 14.0186 38.5194C14.0186 38.792 14.1795 38.9782 14.4344 39.0115C14.1795 39.1312 14.032 39.2575 14.032 39.4171C14.032 39.5102 14.0655 39.5767 14.146 39.6365C13.5559 39.8094 13.3145 40.0288 13.3145 40.2815C13.3145 40.5541 13.6766 40.6671 14.1058 40.6671C14.83 40.6738 15.4402 40.2815 15.4402 39.9557ZM12.7042 38.3598C12.9658 38.3598 12.9725 38.4729 12.9322 38.7588H13.0865L13.4352 37.808H13.2809C13.1468 38.034 13.0462 38.2069 12.7579 38.2069H12.1745L12.4628 37.4289C12.5634 37.1497 12.6171 37.0965 12.9725 37.0965H13.2273C13.5961 37.0965 13.6431 37.1962 13.6431 37.5819H13.7906L13.9113 36.9369H11.7185L11.6782 37.0566C12.1007 37.143 12.1409 37.1829 11.9465 37.7282L11.5106 38.9051C11.3094 39.4437 11.2289 39.4902 10.7394 39.5767L10.7059 39.6964H13.1468L13.5827 39.0115H13.4151C13.1334 39.2907 12.8451 39.5368 12.3019 39.5368C11.6514 39.5368 11.7118 39.5035 11.9264 38.9051L12.1275 38.3665H12.7042V38.3598ZM13.0194 36.7374L13.6431 36.2853V36.2055H13.2273L12.8585 36.7374H13.0194ZM22.3406 33.3396C22.4881 33.3396 22.6155 33.4527 22.5485 33.712L21.8712 33.8915C21.9785 33.5657 22.1797 33.3396 22.3406 33.3396ZM22.7161 34.4301H22.582C22.4144 34.6296 22.2266 34.7892 22.0455 34.7892C21.8578 34.7892 21.7639 34.6761 21.7639 34.4301C21.7639 34.3304 21.7773 34.224 21.7974 34.1309L22.8972 33.7718C23.1118 33.2665 22.8502 33.0471 22.5485 33.0471C22.0254 33.0471 21.4353 33.9514 21.4353 34.6628C21.4353 35.002 21.5962 35.1881 21.8511 35.1881C22.1528 35.1881 22.4613 34.9022 22.7161 34.4301ZM22.5418 32.8077L23.1654 32.2425V32.1627H22.7497L22.3808 32.8143H22.5418V32.8077ZM20.2014 33.3463H20.5702L19.9935 34.9155C19.9399 35.0485 20.0137 35.1815 20.1545 35.1815C20.5635 35.1815 21.0598 34.8357 21.2408 34.3437H21.1402C20.9927 34.5498 20.6708 34.7759 20.4294 34.8224L20.9592 33.3463H21.5024L21.5694 33.1202H21.0397L21.2408 32.555H21.0329L20.6574 33.1202L20.2081 33.1801V33.3463H20.2014ZM20.0137 33.5258C20.0874 33.2665 20.0472 33.0471 19.8527 33.0471C19.6046 33.0471 19.5241 33.2133 19.2827 33.7319V33.4394C19.2827 33.2332 19.2157 33.0471 19.0279 33.0471C18.8066 33.0471 18.6054 33.3928 18.4445 33.7253H18.5451C18.6524 33.5724 18.7529 33.4793 18.8334 33.4793C18.9273 33.4793 18.9809 33.6256 18.8334 33.9514L18.4042 34.8956C18.3238 35.0751 18.4109 35.1881 18.5853 35.1881C18.6926 35.1881 18.7395 35.1615 18.7865 35.0485L19.2089 33.9447C19.3297 33.7984 19.4369 33.6721 19.5711 33.5325H20.0137V33.5258ZM17.6733 33.3396C17.8208 33.3396 17.9482 33.4527 17.8812 33.712L17.2039 33.8915C17.3112 33.5657 17.5124 33.3396 17.6733 33.3396ZM18.0488 34.4301H17.9147C17.7471 34.6296 17.5593 34.7892 17.3782 34.7892C17.1905 34.7892 17.0966 34.6761 17.0966 34.4301C17.0966 34.3304 17.11 34.224 17.1301 34.1309L18.2299 33.7718C18.4445 33.2665 18.1897 33.0471 17.8812 33.0471C17.3581 33.0471 16.768 33.9514 16.768 34.6628C16.768 35.002 16.9289 35.1881 17.1838 35.1881C17.4855 35.1881 17.794 34.9022 18.0488 34.4301ZM15.4872 34.869C15.3799 34.869 15.2257 34.7692 15.2257 34.6828C15.2257 34.6562 15.2726 34.5299 15.3329 34.3769L15.5073 33.9115C15.6951 33.6854 15.9901 33.4394 16.1578 33.4394C16.2584 33.4394 16.3321 33.5059 16.3321 33.6455C16.3254 34.0844 15.9231 34.869 15.4872 34.869ZM16.7077 33.4793C16.7077 33.1601 16.6272 33.0404 16.3992 33.0404C16.1175 33.0404 15.856 33.3396 15.5878 33.6987L16.1511 32.196L16.1175 32.1494L15.4201 32.2292V32.309L15.5542 32.4087C15.6749 32.5018 15.6347 32.5949 15.5274 32.8875L14.9172 34.4767C14.8635 34.6096 14.8032 34.7692 14.8032 34.8091C14.8032 34.9953 15.058 35.1748 15.2927 35.1748C15.8225 35.1881 16.7077 34.224 16.7077 33.4793ZM14.6489 33.2731C14.6892 33.1269 14.5953 33.0471 14.5148 33.0471C14.1997 33.0471 13.8174 33.333 13.6699 33.7253H13.7705C13.8711 33.579 14.0454 33.4194 14.2131 33.3928L13.6028 34.9621C13.5492 35.1083 13.6565 35.1881 13.7369 35.1881C14.0387 35.1881 14.3941 34.9022 14.5417 34.5099H14.4411C14.3405 34.6562 14.1661 34.8158 13.9985 34.8424L14.6489 33.2731ZM14.716 32.6481C14.8501 32.6481 14.9641 32.5351 14.9641 32.4021C14.9641 32.2691 14.8501 32.1561 14.716 32.1561C14.6288 32.1561 14.5484 32.2026 14.5014 32.2758C14.4545 32.3489 14.4545 32.4486 14.5014 32.5284C14.5484 32.6016 14.6288 32.6548 14.716 32.6481ZM13.1669 32.3489H11.7185L11.6782 32.4686C12.1007 32.555 12.1409 32.5949 11.9465 33.1402L11.5106 34.3171C11.3094 34.8557 11.2289 34.9022 10.7394 34.9887L10.7059 35.1083H12.9054L13.3815 34.2639H13.2139C12.9389 34.5631 12.6238 34.9421 12.1342 34.9421C11.7654 34.9421 11.7118 34.8756 11.9197 34.3104L12.3555 33.1335C12.5567 32.5949 12.6372 32.5484 13.1267 32.4619L13.1669 32.3489Z" fill="#B21E1E"/>
</g>
<defs>
<filter id="filter0_d_443_669" x="0" y="0" width="65" height="59" filterUnits="userSpaceOnUse" color-interpolation-filters="sRGB">
<feFlood flood-opacity="0" result="BackgroundImageFix"/>
<feColorMatrix in="SourceAlpha" type="matrix" values="0 0 0 0 0 0 0 0 0 0 0 0 0 0 0 0 0 0 127 0" result="hardAlpha"/>
<feOffset dy="4"/>
<feGaussianBlur stdDeviation="2"/>
<feComposite in2="hardAlpha" operator="out"/>
<feColorMatrix type="matrix" values="0 0 0 0 0 0 0 0 0 0 0 0 0 0 0 0 0 0 0.25 0"/>
<feBlend mode="normal" in2="BackgroundImageFix" result="effect1_dropShadow_443_669"/>
<feBlend mode="normal" in="SourceGraphic" in2="effect1_dropShadow_443_669" result="shape"/>
</filter>
<clipPath id="clip0_443_669">
<rect width="57" height="51" fill="white" transform="translate(4)"/>
</clipPath>
</defs>
</svg>
