<svg width="45" height="15" viewBox="0 0 45 15" fill="none" xmlns="http://www.w3.org/2000/svg">
<path d="M0.705887 6.61006V1.6231H2.23483C2.78918 1.6231 3.22283 1.75608 3.53577 2.02206C3.85318 2.28803 4.01412 2.65152 4.01859 3.11254C4.01859 3.40954 3.9493 3.66664 3.81071 3.88385C3.67212 4.1055 3.47542 4.27838 3.22059 4.4025L4.78977 6.61006H3.576L2.24153 4.59533H1.72518V6.61006H0.705887ZM1.72518 3.73757H2.29518C2.50977 3.73757 2.67518 3.68216 2.79142 3.57134C2.91212 3.46052 2.97248 3.30315 2.97248 3.09924C2.97248 2.90863 2.91212 2.75791 2.79142 2.64709C2.67071 2.53627 2.5053 2.48307 2.29518 2.48751H1.72518V3.73757ZM5.50059 6.61006V1.6231H8.41765V2.48751H6.51318V3.63783H8.1293V4.50224H6.51318V5.74565H8.41765V6.61006H5.50059ZM6.48636 1.19754L7.29106 0.233398H8.33718L7.41177 1.19754H6.48636ZM9.65824 6.61006V1.6231H11.3146C11.8645 1.6231 12.2959 1.75608 12.6088 2.02206C12.9262 2.28803 13.0849 2.65152 13.0849 3.11254C13.0849 3.57355 12.9262 3.93483 12.6088 4.19637C12.2914 4.46234 11.86 4.59533 11.3146 4.59533H10.6775V6.61006H9.65824ZM10.6775 3.73757H11.3548C11.5739 3.73757 11.7438 3.67994 11.8645 3.56469C11.9852 3.45387 12.0455 3.29872 12.0455 3.09924C12.0455 2.90863 11.9829 2.75791 11.8578 2.64709C11.7371 2.53627 11.5694 2.48307 11.3548 2.48751H10.6775V3.73757ZM13.9031 4.66182V1.6231H14.9224V4.74161C14.9224 5.07408 15.0118 5.33561 15.1906 5.52623C15.3694 5.71241 15.6175 5.8055 15.9349 5.8055C16.2479 5.8055 16.4938 5.71241 16.6726 5.52623C16.8514 5.34005 16.9408 5.07851 16.9408 4.74161V1.6231H17.9601V4.66182C17.9601 5.31788 17.7791 5.82988 17.4169 6.1978C17.0548 6.56573 16.5586 6.7497 15.9282 6.7497C15.3024 6.7497 14.8084 6.56573 14.4462 6.1978C14.0841 5.82544 13.9031 5.31345 13.9031 4.66182ZM19.2879 6.61006V1.6231H20.7095C21.2326 1.6231 21.6417 1.74279 21.9367 1.98216C22.2362 2.22153 22.386 2.554 22.386 2.97955C22.386 3.39181 22.2094 3.71984 21.8562 3.96365C22.12 4.08333 22.3234 4.24292 22.4665 4.44239C22.6095 4.64631 22.6811 4.87903 22.6811 5.14057C22.6811 5.59715 22.5134 5.95621 22.1781 6.21775C21.8473 6.47929 21.3935 6.61006 20.8168 6.61006H19.2879ZM20.3005 5.74565H20.8772C21.1141 5.74565 21.2997 5.68803 21.4338 5.57277C21.5679 5.45308 21.6349 5.29129 21.6349 5.08737C21.6349 4.88346 21.5679 4.72388 21.4338 4.60863C21.2997 4.4978 21.1141 4.44239 20.8772 4.44239H20.3005V5.74565ZM20.3005 3.57799H20.7297C20.9219 3.57799 21.0717 3.52923 21.1789 3.4317C21.2862 3.33861 21.3399 3.20341 21.3399 3.0261C21.3399 2.85765 21.2862 2.72688 21.1789 2.63379C21.0761 2.53627 20.9264 2.48751 20.7297 2.48751H20.3005V3.57799ZM23.7875 6.61006V1.6231H24.8001V5.69246H26.7046V6.61006H23.7875ZM27.6702 6.61006V1.6231H28.6828V6.61006H27.6702ZM29.9234 5.13392C29.7938 4.81032 29.7289 4.47121 29.7289 4.11658C29.7289 3.76195 29.7938 3.42505 29.9234 3.10589C30.0531 2.78229 30.2319 2.5008 30.4599 2.26143C30.6924 2.02206 30.974 1.83144 31.3048 1.68959C31.6401 1.54774 32 1.47681 32.3845 1.47681C32.7689 1.47681 33.1288 1.54774 33.4641 1.68959C33.7994 1.83144 34.0811 2.02206 34.3091 2.26143C34.5371 2.5008 34.7159 2.78229 34.8455 3.10589C34.9752 3.42505 35.04 3.76195 35.04 4.11658C35.04 4.53327 34.9528 4.92336 34.7785 5.28685C34.6041 5.65035 34.3627 5.954 34.0542 6.1978L34.356 6.48372C34.7092 6.80289 35.0579 6.96026 35.4021 6.95582C35.5452 6.95582 35.6659 6.93809 35.7642 6.90263V7.76039C35.6078 7.82245 35.4312 7.85126 35.2345 7.84683C34.6935 7.84683 34.1727 7.62962 33.672 7.1952L33.0752 6.66325C32.8561 6.72088 32.6259 6.7497 32.3845 6.7497C32 6.7497 31.6401 6.67877 31.3048 6.53692C30.974 6.39507 30.6924 6.20667 30.4599 5.97173C30.2319 5.73236 30.0531 5.45308 29.9234 5.13392ZM31.2311 2.91306C30.9271 3.23666 30.7728 3.63783 30.7684 4.11658C30.7684 4.59533 30.9226 4.9965 31.2311 5.3201C31.5351 5.6437 31.9218 5.8055 32.3912 5.8055C32.6997 5.8055 32.9746 5.73236 33.216 5.58607C33.4619 5.43979 33.6541 5.23588 33.7927 4.97434C33.9313 4.71723 34.0006 4.43131 34.0006 4.11658C34.0006 3.63783 33.8464 3.23666 33.5379 2.91306C33.2339 2.58946 32.8494 2.42766 32.3845 2.42766C31.9151 2.42766 31.5284 2.58946 31.2244 2.91306H31.2311ZM35.9922 4.66182V1.6231H37.0115V4.74161C37.0115 5.07408 37.1009 5.33561 37.2798 5.52623C37.4586 5.71241 37.7067 5.8055 38.0241 5.8055C38.3371 5.8055 38.583 5.71241 38.7618 5.52623C38.9406 5.34005 39.03 5.07851 39.03 4.74161V1.6231H40.0493V4.66182C40.0493 5.31788 39.8682 5.82988 39.5061 6.1978C39.144 6.57016 38.6478 6.75413 38.0174 6.7497C37.3915 6.7497 36.8975 6.56573 36.5354 6.1978C36.1733 5.82544 35.9922 5.31345 35.9922 4.66182ZM41.3771 6.61006V1.6231H44.2941V2.48751H42.3897V3.63783H44.0058V4.50224H42.3897V5.74565H44.2941V6.61006H41.3771ZM0.705887 13.8245V8.83757H3.62295V9.70198H1.72518V10.8523H3.3413V11.7167H1.72518V13.8245H0.705887ZM4.58859 13.8245V8.83757H6.11753C6.66742 8.83757 7.1033 8.97056 7.42518 9.23653C7.74259 9.5025 7.9013 9.86599 7.9013 10.327C7.9013 10.624 7.83201 10.8833 7.69342 11.105C7.55483 11.3266 7.35812 11.4973 7.1033 11.617L8.67248 13.8245H7.45871L6.12424 11.8098H5.60789V13.8245H4.58859ZM5.60789 10.952H6.17789C6.39248 10.952 6.56012 10.8966 6.68083 10.7858C6.80153 10.675 6.85965 10.5176 6.85518 10.3137C6.85518 10.1231 6.79706 9.97238 6.68083 9.86156C6.56459 9.75074 6.39695 9.69754 6.17789 9.70198H5.60789V10.952ZM8.96083 13.8245L10.8586 8.83757H12.1864L14.0841 13.8245H13.0045L12.5217 12.5279H10.5166L10.0405 13.8245H8.96083ZM10.8318 11.6635H12.2132L11.5225 9.79507L10.8318 11.6635ZM14.9291 13.8245V8.83757H16.23L18.4698 12.4082V8.83757H19.4824V13.8245H18.1814L15.9417 10.2406V13.8245H14.9291ZM20.5352 11.3311C20.5352 10.9764 20.6 10.6395 20.7297 10.3204C20.8593 9.99676 21.0381 9.71527 21.2661 9.4759C21.4986 9.23653 21.7802 9.04813 22.1111 8.91071C22.4464 8.76886 22.8085 8.69794 23.1974 8.69794C23.64 8.69794 24.0424 8.78659 24.4045 8.96391C24.7711 9.14565 25.0706 9.39389 25.3031 9.70863L24.5051 10.327C24.3575 10.1187 24.172 9.95243 23.9485 9.82831C23.7249 9.70419 23.4746 9.64213 23.1974 9.64213C22.728 9.64213 22.3413 9.80393 22.0373 10.1275C21.7333 10.4511 21.5791 10.8523 21.5746 11.3311C21.5746 11.8098 21.7288 12.2132 22.0373 12.5412C22.3413 12.8648 22.728 13.0244 23.1974 13.02C23.4746 13.02 23.7249 12.9601 23.9485 12.8404C24.172 12.7163 24.3575 12.5479 24.5051 12.3351L25.3031 12.9468C25.1064 13.2172 24.8605 13.4389 24.5654 13.6118C24.2704 13.7846 23.944 13.8932 23.5864 13.9376L22.9627 14.9749H22.0641L22.6945 13.9243C22.2698 13.8489 21.892 13.6871 21.5612 13.4389C21.2304 13.1906 20.9755 12.8826 20.7967 12.5146C20.6179 12.1467 20.5307 11.7522 20.5352 11.3311ZM25.5981 13.8245L27.4959 8.83757H28.8237L30.7214 13.8245H29.6418L29.1657 12.5279H27.1606L26.6778 13.8245H25.5981ZM27.4758 11.6635H28.8505L28.1598 9.79507L27.4758 11.6635ZM31.5664 13.8245V8.83757H32.5857V13.8245H31.5664ZM33.6049 13.133L34.3426 12.4614C34.4946 12.6565 34.6645 12.8072 34.8522 12.9136C35.0445 13.02 35.2434 13.0732 35.4491 13.0732C35.6502 13.0732 35.8067 13.0222 35.9185 12.9202C36.0347 12.8183 36.0928 12.6764 36.0928 12.4947C36.0928 12.3883 36.0615 12.2908 35.9989 12.2021C35.9319 12.1134 35.8447 12.0403 35.7374 11.9827C35.6301 11.9206 35.5072 11.8586 35.3686 11.7965C35.23 11.73 35.0892 11.6657 34.9461 11.6037C34.8031 11.5416 34.6645 11.4663 34.5304 11.3776C34.3918 11.2889 34.2688 11.1914 34.1615 11.085C34.0542 10.9786 33.9671 10.8434 33.9 10.6794C33.8329 10.5154 33.7994 10.3359 33.7994 10.1408C33.7994 9.73744 33.9514 9.39611 34.2554 9.11684C34.5594 8.83757 34.9439 8.69794 35.4088 8.69794C36.1062 8.69794 36.6897 8.9772 37.1591 9.53574L36.4147 10.2007C36.0928 9.78398 35.7598 9.57564 35.4155 9.57564C35.2457 9.57564 35.1048 9.62662 34.9931 9.72857C34.8813 9.83053 34.8277 9.95465 34.8321 10.1009C34.8321 10.194 34.8589 10.2805 34.9126 10.3603C34.9662 10.4356 35.0355 10.5043 35.1205 10.5664C35.2099 10.624 35.3127 10.6816 35.4289 10.7393L35.7844 10.9055C35.914 10.9631 36.0414 11.0208 36.1666 11.0784C36.2962 11.1404 36.417 11.2158 36.5287 11.3045C36.6449 11.3887 36.7478 11.4862 36.8372 11.597C36.9266 11.7034 36.9959 11.8297 37.0451 11.976C37.0987 12.1267 37.1255 12.293 37.1255 12.4747C37.1166 12.9269 36.9534 13.2882 36.636 13.5586C36.3231 13.829 35.9319 13.9642 35.4625 13.9642C35.0512 13.9642 34.6958 13.8955 34.3962 13.758C34.0967 13.6162 33.8329 13.4078 33.6049 13.133ZM38.2588 13.8245V8.83757H41.1759V9.70198H39.2781V10.8523H40.8942V11.7167H39.2781V12.9601H41.1759V13.8245H38.2588Z" fill="#B21E1E"/>
</svg>
